<svg width="260" height="230" viewBox="0 0 260 230" fill="none" xmlns="http://www.w3.org/2000/svg">
  <defs>
    <radialGradient id="halo" cx="50%" cy="50%" r="50%">
      <stop offset="0%" stop-color="#39C85A" stop-opacity="0.45"/>
      <stop offset="62%" stop-color="#39C85A" stop-opacity="0.12"/>
      <stop offset="100%" stop-color="#39C85A" stop-opacity="0"/>
    </radialGradient>
    <linearGradient id="phone" x1="116" y1="22" x2="160" y2="190" gradientUnits="userSpaceOnUse">
      <stop stop-color="#122744"/>
      <stop offset="1" stop-color="#07162E"/>
    </linearGradient>
    <filter id="shadow" x="66" y="0" width="132" height="218" filterUnits="userSpaceOnUse" color-interpolation-filters="sRGB">
      <feFlood flood-opacity="0" result="BackgroundImageFix"/>
      <feColorMatrix in="SourceAlpha" type="matrix" values="0 0 0 0 0 0 0 0 0 0 0 0 0 0 0 0 0 0 127 0" result="hardAlpha"/>
      <feOffset dy="16"/>
      <feGaussianBlur stdDeviation="12"/>
      <feComposite in2="hardAlpha" operator="out"/>
      <feColorMatrix type="matrix" values="0 0 0 0 0.015 0 0 0 0 0.086 0 0 0 0 0.196 0 0 0 0.28 0"/>
      <feBlend mode="normal" in2="BackgroundImageFix" result="effect1_dropShadow"/>
      <feBlend mode="normal" in="SourceGraphic" in2="effect1_dropShadow" result="shape"/>
    </filter>
  </defs>
  <circle cx="143" cy="104" r="84" fill="url(#halo)"/>
  <circle cx="143" cy="104" r="100" stroke="#DCE5F4" stroke-width="1"/>
  <circle cx="143" cy="104" r="76" stroke="#DCE5F4" stroke-width="1" stroke-dasharray="3 6"/>
  <g filter="url(#shadow)" transform="rotate(10 132 103)">
    <rect x="94" y="20" width="78" height="156" rx="22" fill="url(#phone)" stroke="#1D3254" stroke-width="6"/>
    <rect x="119" y="29" width="27" height="4" rx="2" fill="#020A18"/>
    <rect x="108" y="128" width="50" height="7" rx="3.5" fill="#2A405E"/>
    <rect x="108" y="144" width="38" height="7" rx="3.5" fill="#2A405E"/>
    <circle cx="133" cy="85" r="33" fill="#25D366"/>
    <circle cx="133" cy="85" r="41" stroke="#25D366" stroke-opacity="0.28" stroke-width="9"/>
    <path d="M150 88.5c0 9-7.4 16.3-16.5 16.3-2.9 0-5.6-.7-8-2.1l-8.9 2.3 2.4-8.6a16 16 0 0 1-2.2-8.1c0-9 7.4-16.3 16.5-16.3 4.4 0 8.6 1.7 11.7 4.8a16 16 0 0 1 5 11.7Z" fill="white"/>
    <path d="M142.4 94.6c-.4 1.1-2.3 2.1-3.2 2.2-.8.1-1.8.2-5.9-1.5-5-2.1-8.2-7.1-8.4-7.4-.2-.3-2-2.6-2-5 0-2.4 1.3-3.6 1.8-4.1.4-.5.9-.6 1.3-.6h.9c.3 0 .7-.1 1.1.8.4 1 .1.3 1.2 2.9.1.3.2.7.1 1-.2.4-.3.6-.6.9-.3.3-.5.6-.8.9-.3.3-.6.6-.3 1.1.3.5 1.2 2 2.6 3.2 1.8 1.6 3.2 2.1 3.8 2.4.5.3.9.2 1.2-.1.4-.4 1.3-1.5 1.6-2 .4-.5.7-.4 1.2-.2.5.2 3.2 1.5 3.7 1.8.6.3.9.4 1 .7.2.2.2 1.4-.3 3Z" fill="#25D366"/>
  </g>
  <g>
    <rect x="41" y="91" width="66" height="40" rx="14" fill="#4ADE68"/>
    <rect x="59" y="104" width="36" height="5" rx="2.5" fill="white" fill-opacity="0.85"/>
    <rect x="59" y="114" width="25" height="5" rx="2.5" fill="white" fill-opacity="0.7"/>
  </g>
  <g>
    <rect x="177" y="106" width="64" height="38" rx="14" fill="#E8EDF5"/>
    <circle cx="196" cy="125" r="4" fill="white"/>
    <circle cx="209" cy="125" r="4" fill="white"/>
    <circle cx="222" cy="125" r="4" fill="white"/>
  </g>
  <g>
    <circle cx="224" cy="48" r="16" fill="#39C85A"/>
    <path d="M233 49.5c0 4.9-4 8.9-9 8.9-1.6 0-3.1-.4-4.4-1.1l-4.9 1.3 1.3-4.7a8.8 8.8 0 0 1-1.2-4.4c0-4.9 4-8.9 9-8.9 2.4 0 4.7.9 6.4 2.6a8.7 8.7 0 0 1 2.8 6.3Z" fill="white"/>
    <path d="M228.8 52.8c-.2.6-1.3 1.1-1.8 1.2-.4.1-1 .1-3.2-.8-2.7-1.2-4.5-3.9-4.6-4.1-.1-.2-1.1-1.4-1.1-2.7 0-1.3.7-2 1-2.2.2-.3.5-.3.7-.3h.5c.2 0 .4 0 .6.4.2.5.1.2.7 1.6.1.2.1.4 0 .6-.1.2-.2.3-.3.5-.2.2-.3.3-.4.5-.2.2-.3.3-.2.6.2.3.7 1.1 1.4 1.8 1 .9 1.8 1.2 2.1 1.3.3.2.5.1.7-.1.2-.2.7-.8.9-1.1.2-.3.4-.2.7-.1.3.1 1.7.8 2 1 .3.2.5.2.6.4.1.1.1.8-.1 1.6Z" fill="#39C85A"/>
  </g>
</svg>
